<?xml version="1.0" standalone="no"?>
<!DOCTYPE svg PUBLIC "-//W3C//DTD SVG 20010904//EN"
 "http://www.w3.org/TR/2001/REC-SVG-20010904/DTD/svg10.dtd">
<svg version="1.0" xmlns="http://www.w3.org/2000/svg"
 width="700.000000pt" height="700.000000pt" viewBox="0 0 700.000000 700.000000"
 preserveAspectRatio="xMidYMid meet">
<metadata>
Created by potrace 1.11, written by Peter Selinger 2001-2013
</metadata>
<g transform="translate(0.000000,700.000000) scale(0.100000,-0.100000)"
fill="#000000" stroke="none">
<path d="M0 3500 l0 -3500 3500 0 3500 0 0 3500 0 3500 -3500 0 -3500 0 0
-3500z m6970 0 l0 -3470 -3470 0 -3470 0 0 3470 0 3470 3470 0 3470 0 0 -3470z"/>
<path d="M1376 4556 c1 -143 2 -263 3 -266 0 -3 413 -6 915 -5 726 0 918 -3
928 -13 9 -9 13 -63 16 -187 l3 -175 -418 -1 c-1013 -1 -1432 -5 -1439 -12 -8
-8 -7 -892 1 -958 24 -192 176 -378 368 -448 l72 -26 700 -2 c385 -1 706 -3
713 -3 9 0 12 -100 12 -465 l0 -465 267 2 268 3 0 463 c0 254 2 462 5 463 3 0
316 2 695 3 508 2 703 5 739 15 124 31 276 144 341 255 28 48 60 125 71 173 4
15 7 336 8 713 2 508 -1 702 -10 751 -35 185 -183 353 -372 423 l-57 21 -1915
1 -1915 2 1 -262z m3697 -273 c19 -4 29 -13 34 -31 3 -14 6 -295 6 -624 0
-547 -1 -601 -17 -616 -15 -15 -70 -17 -624 -17 -562 -1 -662 2 -680 20 -8 8
-10 1175 -2 1225 4 29 11 36 35 41 36 8 1208 10 1248 2z m-1835 -1070 l-3
-218 -647 0 c-517 0 -650 3 -660 13 -10 10 -14 66 -16 216 l-3 204 665 1 666
2 -2 -218z"/>
</g>
</svg>
