<?xml version="1.0" standalone="no"?>
<!DOCTYPE svg PUBLIC "-//W3C//DTD SVG 20010904//EN"
 "http://www.w3.org/TR/2001/REC-SVG-20010904/DTD/svg10.dtd">
<svg version="1.0" xmlns="http://www.w3.org/2000/svg"
 width="700.000000pt" height="700.000000pt" viewBox="0 0 700.000000 700.000000"
 preserveAspectRatio="xMidYMid meet">
<metadata>
Created by potrace 1.14, written by Peter Selinger 2001-2017
</metadata>
<g transform="translate(0.000000,700.000000) scale(0.100000,-0.100000)"
fill="#000000" stroke="none">
<path d="M3442 5400 c-33 -53 -245 -412 -321 -545 -60 -103 -86 -159 -85 -177
3 -28 15 -52 117 -223 33 -55 68 -115 78 -132 11 -18 27 -48 38 -65 51 -90
503 -799 690 -1083 25 -38 48 -74 51 -80 3 -5 30 -48 61 -95 31 -47 132 -202
224 -345 258 -399 294 -453 357 -548 32 -48 58 -90 58 -93 0 -8 44 -69 53 -72
4 -2 7 -8 7 -13 0 -17 199 -311 222 -327 20 -14 72 -16 436 -17 228 0 416 3
419 7 2 5 -11 32 -30 60 -18 29 -87 139 -152 243 -65 105 -142 226 -170 270
-71 110 -267 420 -285 450 -25 41 -137 217 -369 578 -55 87 -101 162 -101 167
0 5 -3 10 -8 12 -4 1 -37 49 -72 106 -36 56 -77 121 -92 145 -15 23 -31 49
-35 57 -4 8 -32 53 -62 100 -31 47 -61 95 -68 105 -32 52 -109 175 -138 220
-45 70 -168 266 -180 287 -5 10 -64 104 -129 210 -188 303 -456 748 -456 756
-1 4 -11 19 -23 34 -22 27 -23 27 -35 8z"/>
<path d="M2818 4395 c-45 -74 -91 -148 -100 -163 -9 -15 -23 -37 -30 -50 -11
-19 -87 -143 -388 -632 -43 -69 -122 -197 -176 -285 -54 -88 -101 -164 -103
-170 -2 -5 -18 -32 -36 -60 -18 -27 -95 -151 -170 -275 -76 -124 -181 -295
-233 -380 -285 -466 -369 -602 -412 -670 -26 -41 -52 -85 -59 -97 l-11 -22
262 1 c145 1 313 -1 375 -4 101 -5 117 -3 170 18 73 29 129 88 212 221 33 54
68 107 77 118 8 11 20 29 25 40 5 11 26 46 47 77 20 31 64 99 97 150 95 149
358 551 567 867 48 73 88 135 88 138 0 2 5 9 11 16 6 7 84 124 174 261 l163
249 -50 86 c-28 47 -54 91 -58 96 -4 6 -19 30 -32 55 -32 57 -319 544 -323
548 -2 2 -41 -58 -87 -133z"/>
<path d="M2787 2449 c-21 -3 -49 -17 -62 -30 -12 -13 -75 -107 -139 -209 -63
-102 -119 -189 -123 -195 -5 -5 -44 -68 -87 -140 -43 -71 -96 -159 -118 -195
-22 -35 -40 -69 -41 -74 -1 -6 480 -10 1261 -10 1068 -1 1262 1 1262 13 0 7
-10 30 -22 50 -13 19 -27 44 -33 54 -10 17 -179 285 -280 442 -28 44 -77 121
-109 172 -32 50 -67 100 -78 110 -19 17 -54 18 -707 18 -377 0 -703 -2 -724
-6z"/>
</g>
</svg>
